<?xml version="1.0" standalone="no"?>
<!DOCTYPE svg PUBLIC "-//W3C//DTD SVG 20010904//EN"
 "http://www.w3.org/TR/2001/REC-SVG-20010904/DTD/svg10.dtd">
<svg version="1.0" xmlns="http://www.w3.org/2000/svg"
 width="259.000000pt" height="260.000000pt" viewBox="0 0 259.000000 260.000000"
 preserveAspectRatio="xMidYMid meet">
<metadata>
Created by potrace 1.16, written by Peter Selinger 2001-2019
</metadata>
<g transform="translate(0.000000,260.000000) scale(0.100000,-0.100000)"
fill="#000000" stroke="none">
<path d="M1120 2010 c-14 -11 -28 -20 -32 -20 -4 0 -26 -18 -50 -40 -24 -22
-49 -38 -56 -35 -7 3 -11 1 -7 -4 3 -5 -26 -31 -64 -58 l-69 -49 19 -22 c10
-13 21 -22 24 -21 3 0 51 -25 107 -57 l100 -59 -78 -8 c-44 -4 -91 -9 -106
-10 -14 -1 -24 -5 -22 -9 3 -4 -7 -10 -21 -14 -53 -13 -35 -23 122 -65 81 -22
82 -23 60 -38 -12 -9 -25 -15 -28 -14 -3 1 -6 -4 -6 -11 0 -13 -139 -270 -157
-289 -6 -7 -12 -17 -13 -22 -3 -18 -99 -185 -104 -181 -3 3 -5 -4 -5 -14 0
-20 10 -20 418 -20 230 0 418 3 418 7 0 10 -81 267 -86 272 -2 2 -36 -15 -76
-38 -40 -23 -76 -40 -80 -39 -4 2 -13 -4 -20 -13 -7 -9 -26 -24 -43 -34 -25
-14 -27 -15 -10 -1 11 9 43 39 72 67 29 28 57 48 63 44 6 -4 9 -1 8 7 -2 9 17
15 72 19 41 3 83 10 93 14 36 15 66 54 65 83 -1 16 2 34 6 41 4 6 5 20 1 30
-5 16 -15 20 -53 19 -76 -1 -89 3 -84 27 4 21 -92 185 -109 185 -4 0 -9 -10
-11 -21 -2 -18 -7 -15 -25 19 l-22 42 21 14 c20 14 20 14 -3 18 -13 2 23 2 81
0 84 -3 103 -2 93 8 -6 7 -45 17 -85 21 -40 5 -107 13 -148 18 -69 8 -228 65
-254 91 -8 8 17 45 100 148 30 36 22 42 -16 12z"/>
<path d="M1896 1811 c-16 -11 -36 -17 -45 -14 -12 4 -13 3 -3 -5 10 -6 -5 -20
-55 -53 l-67 -44 -98 0 c-54 0 -98 -3 -98 -6 0 -4 7 -23 15 -43 9 -20 13 -41
9 -47 -8 -13 4 -59 16 -59 5 0 12 9 15 20 5 17 15 20 71 20 59 0 67 3 102 35
22 19 43 31 47 27 5 -4 5 -2 2 4 -7 13 119 170 134 166 6 -1 8 2 4 8 -9 14
-16 13 -49 -9z"/>
</g>
</svg>
